<svg id="visual" viewBox="0 0 960 540" width="960" height="540" xmlns="http://www.w3.org/2000/svg" xmlns:xlink="http://www.w3.org/1999/xlink" version="1.1"><rect x="0" y="0" width="960" height="540" fill="#2b2e4a"></rect><defs><linearGradient id="grad1_0" x1="43.8%" y1="0%" x2="100%" y2="100%"><stop offset="14.444444444444446%" stop-color="#2b2e4a" stop-opacity="1"></stop><stop offset="85.55555555555554%" stop-color="#2b2e4a" stop-opacity="1"></stop></linearGradient></defs><defs><linearGradient id="grad2_0" x1="0%" y1="0%" x2="56.3%" y2="100%"><stop offset="14.444444444444446%" stop-color="#2b2e4a" stop-opacity="1"></stop><stop offset="85.55555555555554%" stop-color="#2b2e4a" stop-opacity="1"></stop></linearGradient></defs><g transform="translate(960, 0)"><path d="M0 324C-35.5 302 -71 280 -110.6 267C-150.2 254 -194 249.9 -227.7 227.7C-261.4 205.4 -285 165 -299.3 124C-313.7 83 -318.9 41.5 -324 0L0 0Z" fill="#e84545"></path></g><g transform="translate(0, 540)"><path d="M0 -324C30.7 -293 61.5 -261.9 104.1 -251.3C146.7 -240.7 201.2 -250.5 229.1 -229.1C257 -207.7 258.4 -155.1 269.8 -111.7C281.2 -68.4 302.6 -34.2 324 0L0 0Z" fill="#e84545"></path></g></svg>